Coordinates
version=1
nRows=26
nColumns=20
inDegrees=yes

Units are S.I. units (second, meters, Newtons, ...)
Angles are in degrees.

endheader
time	pelvis_tilt	pelvis_list	pelvis_rotation	pelvis_tx	pelvis_ty	pelvis_tz	hip_flexion_r	hip_adduction_r	hip_rotation_r	knee_angle_r	ankle_angle_r	hip_flexion_l	hip_adduction_l	hip_rotation_l	knee_angle_l	ankle_angle_l	lumbar_extension	lumbar_bending	lumbar_rotation
      1.88300000	      4.60040094	      1.84931338	      1.95875775	      0.58363338	      1.00347557	     -0.00252439	     20.55313127	     -3.18469756	     -3.86567650	     -7.18044450	      0.00102444	    -22.62350694	      3.54508764	      5.38614822	     -7.81566082	     14.24391052	    -15.12713793	     -1.75305342	     -8.85816280
      1.90000000	      4.38649736	      1.67273151	      2.25297696	      0.58693331	      1.00298353	     -0.00052008	     21.21680405	     -2.91362626	     -3.99268810	    -10.26588954	     -1.06735763	    -22.55401632	      3.10041154	      5.72207673	    -10.08755714	     13.99078423	    -14.57570321	     -1.21541280	     -8.86634298
      1.91700000	      4.51721970	      1.51264902	      2.59072550	      0.59029096	      1.00369886	      0.00136890	     21.54111273	     -2.72852889	     -4.14971738	    -13.59728815	     -1.70407483	    -22.48486492	      2.67777821	      6.12414983	    -12.96600776	     13.40112637	    -14.46010474	     -0.60714715	     -9.10243838
      1.93300000	      4.63004416	      1.38934566	      2.73950830	      0.59461152	      1.00490219	      0.00326084	     21.71141953	     -2.55370182	     -3.99233751	    -16.78872585	     -1.83800562	    -21.98661671	      2.42760164	      6.32382699	    -16.61746666	     12.41227791	    -14.16075626	     -0.10962314	     -8.90567658
      1.95000000	      4.99141980	      1.14569226	      3.11141867	      0.59852187	      1.00687017	      0.00506987	     21.29641778	     -2.30514801	     -4.03640394	    -19.43890559	     -1.71952255	    -20.97953694	      2.01580242	      6.54194863	    -21.53401091	     11.07675113	    -14.25541150	      0.58443111	     -9.06889469
      1.96700000	      5.07998887	      1.28953128	      3.44174323	      0.60123136	      1.00845662	      0.00701537	     21.02237368	     -2.44242754	     -4.01702328	    -21.76345052	     -1.28804095	    -18.81414469	      2.06087207	      6.52628316	    -27.72904436	      8.98145370	    -14.15576824	      0.78097772	     -9.12824080
      1.98300000	      5.19665171	      1.07108413	      3.63951463	      0.60388615	      1.01009229	      0.00936435	     20.38289292	     -2.13141900	     -4.14430795	    -23.42389794	     -0.62438190	    -16.10670343	      1.68266306	      5.81233383	    -34.53600192	      5.84884124	    -14.14113795	      1.24995079	     -9.07893498
      2.00000000	      5.21154629	      0.85959908	      3.65134370	      0.60572160	      1.01152014	      0.01193302	     19.75029932	     -1.73799379	     -4.20083936	    -24.81763288	      0.39970843	    -12.87655889	      1.19299589	      4.57413530	    -41.41926743	      1.62217726	    -13.95852234	      1.63756497	     -8.75925791
      2.01700000	      5.09697946	      0.27294226	      3.48414655	      0.60649514	      1.01277741	      0.01514310	     18.98767875	     -0.85603199	     -4.30184570	    -25.48567182	      1.44301240	     -9.22412540	      0.07488297	      2.87605647	    -48.05605875	     -2.99277105	    -13.77431858	      2.36945811	     -7.98162460
      2.03300000	      5.04487325	     -0.43441741	      3.63185397	      0.60754484	      1.01474193	      0.01838997	     17.79607066	      0.13148448	     -4.72057979	    -25.53687947	      2.56451582	     -5.75212315	     -1.47766118	      1.50243734	    -53.79248516	     -7.08678401	    -13.48996619	      3.08563004	     -7.55181870
      2.05000000	      5.09425879	     -1.07242971	      3.44481937	      0.60750217	      1.01724806	      0.02185511	     16.36191940	      1.15945408	     -4.80928872	    -25.12258276	      3.51563458	     -2.53848921	     -2.91476412	      0.19643433	    -58.72018648	     -9.47424753	    -13.54693179	      3.68312918	     -6.68795778
      2.06700000	      5.35454783	     -1.56477082	      3.39515534	      0.60736857	      1.02041594	      0.02519869	     14.61581167	      2.03608643	     -4.86043293	    -24.56515253	      4.44617457	      0.34689844	     -4.13129496	     -0.57577018	    -62.96844866	     -9.73992703	    -13.76176865	      3.97979167	     -6.05520406
      2.08300000	      5.41280611	     -1.74185772	      3.10842732	      0.60671886	      1.02382421	      0.02800715	     12.92502682	      2.55667804	     -4.60255110	    -23.63127251	      5.13680277	      3.21749817	     -4.77962493	     -1.27655884	    -66.30438896	     -8.28984713	    -13.92587504	      4.00380866	     -5.08193797
      2.10000000	      5.52645912	     -1.83847578	      2.87061785	      0.60650271	      1.02757932	      0.03076144	     10.98246731	      2.97849714	     -4.35567732	    -22.37904203	      5.65872974	      5.82085112	     -5.13741740	     -1.60252416	    -68.69540352	     -6.05010690	    -14.02251373	      3.83969290	     -4.33252285
      2.11700000	      5.80867399	     -1.80243847	      2.37949080	      0.60567741	      1.03163852	      0.03378981	      8.68209226	      3.29369261	     -3.81397562	    -20.65687846	      5.88612363	      8.05159068	     -5.31690642	     -2.12998056	    -70.10702303	     -3.99266677	    -14.26525156	      3.50658779	     -3.25265496
      2.13300000	      5.87144563	     -1.71703908	      1.95508773	      0.60462104	      1.03496816	      0.03640862	      6.68728073	      3.47587592	     -3.31496127	    -19.06055123	      6.12959203	     10.37411667	     -5.18603443	     -2.27620494	    -70.67309169	     -2.35872128	    -14.42384460	      3.09621575	     -2.40014721
      2.15000000	      5.87008546	     -1.63072354	      1.49281832	      0.60356840	      1.03776975	      0.03867368	      4.76743859	      3.60766681	     -2.75363810	    -17.45425712	      6.34755074	     12.55168880	     -4.95450466	     -2.37652235	    -70.38922341	     -1.21289708	    -14.35309927	      2.73211201	     -1.71037276
      2.16700000	      5.79922803	     -1.52763136	      0.86772664	      0.60165430	      1.03988654	      0.04095699	      3.06451116	      3.68110464	     -2.03585352	    -16.00130073	      6.52029822	     14.63660063	     -4.73240601	     -2.66092285	    -69.35721547	     -0.41051222	    -14.37543385	      2.35679868	     -0.76340569
      2.18300000	      5.93179832	     -1.32154866	      0.46049202	      0.60020761	      1.04193392	      0.04256796	      1.16651283	      3.58066595	     -1.54780260	    -14.67385554	      6.77456677	     16.21793006	     -4.30742118	     -2.75599131	    -67.45206447	      0.22512251	    -14.58090317	      1.91790804	     -0.25126439
      2.20000000	      5.71557759	     -1.36175684	     -0.02279648	      0.59787148	      1.04247453	      0.04429439	     -0.13262460	      3.72401797	     -1.01111277	    -13.65910856	      7.13601970	     18.10114592	     -4.22731064	     -2.89652694	    -65.05887286	      0.77901604	    -14.49464152	      1.73958013	      0.36633361
      2.21700000	      5.81827738	     -1.24487146	     -0.44027898	      0.59646358	      1.04330085	      0.04571758	     -1.94576768	      3.66540820	     -0.52781551	    -12.42787391	      7.51052594	     19.17758778	     -4.06693013	     -3.18960780	    -61.66740832	      1.15803854	    -14.61180450	      1.35548624	      0.84032543
      2.23300000	      5.73856271	     -1.30061822	     -0.71444543	      0.59425148	      1.04312911	      0.04700809	     -3.44379340	      3.78458876	     -0.17001447	    -11.35550726	      7.92733936	     20.27787121	     -4.17202945	     -3.46962644	    -57.64097279	      1.33261126	    -14.70035498	      1.17615696	      1.19652523
      2.25000000	      5.63416752	     -1.58794593	     -0.84585033	      0.59257339	      1.04230573	      0.04815196	     -4.93362658	      4.15325224	      0.08747700	    -10.34462806	      8.38988761	     21.08373898	     -4.57696979	     -3.77087394	    -52.94440041	      1.37652415	    -14.64412455	      1.31340334	      1.48071466
      2.26700000	      5.73366178	     -1.79401609	     -1.11980524	      0.59083990	      1.04135380	      0.04896976	     -6.57059066	      4.37679534	      0.52271735	     -9.49965442	      8.95292924	     21.29183103	     -5.00981534	     -4.60558503	    -47.51921997	      1.15448821	    -14.87667043	      1.33114616	      1.83312552
      2.28300000	      5.52978063	     -2.18398721	     -1.38713691	      0.58892362	      1.03925811	      0.04987427	     -7.72367572	      4.79732217	      0.94051334	     -8.99187772	      9.65449113	     21.58981763	     -5.63887110	     -5.61728141	    -41.64669708	      0.72878528	    -14.74007626	      1.54603290	      1.90089726
      2.30000000	      5.59128451	     -2.64065255	     -1.46167679	      0.58771675	      1.03714489	      0.05040292	     -9.29107323	      5.27927954	      1.20114409	     -8.31632696	     10.26523763	     21.34855753	     -6.17038794	     -6.58798148	    -35.40573070	      0.14324378	    -14.96309254	      1.85694673	      2.06920615
